# xmcd CD database file
#
# Track frame offsets:
#	182
#	13572
#	25017
#	36255
#	48695
#	59342
#	78590
#	92762
#	106017
#	117567
#	130300
#	145630
#	157967
#	173410
#
# Disc length: 2450 seconds
#
# Revision: 1
# Processed by: cddbd v1.5.1PL0 Copyright (c) Steve Scherf et al.
# Submitted via: CDex 1.51
#
DISCID=ad09900e
DTITLE=Sonny Boy Williamson - Stop Crying
DYEAR=1991
DGENRE=Blues
TTITLE0=Your Imagination
TTITLE1=The Key ( To Your Door )
TTITLE2=Your Funeral My Trial
TTITLE3=" 99 "
TTITLE4=Fattening Frogs For Snakes
TTITLE5=Nine Below Zero
TTITLE6=Help Me 
TTITLE7=Sad to Be Alone
TTITLE8=Stop Crying ( All Your Throwing Away Is Mine )
TTITLE9=Keep It To Yourself
TTITLE10=Cross My Heart
TTITLE11=The Goat
TTITLE12=Decoration Day
TTITLE13=Let Your Conscience Be Your Guide
EXTD=YEAR: 1991
EXTT0=
EXTT1=
EXTT2=
EXTT3=
EXTT4=
EXTT5=
EXTT6=
EXTT7=
EXTT8=
EXTT9=
EXTT10=
EXTT11=
EXTT12=
EXTT13=
PLAYORDER=
